<?xml version="1.0"?>
<svg xmlns:rdf="http://www.w3.org/1999/02/22-rdf-syntax-ns#" xmlns="http://www.w3.org/2000/svg" xmlns:cc="http://creativecommons.org/ns#" xmlns:dc="http://purl.org/dc/elements/1.1/" id="svg2" viewBox="0 0 146.72 57.688" version="1.1">
  <title id="title2820">Xmas Star</title>
  <g id="layer1" transform="translate(-32.531 -39.324)">
    <g id="g5148">
      <path id="path5031" d="m135.34 43.324c17.247 0.003 32.67 4.6296 43.688 11.281-1.6626 0.63813-3.3437 1.3153-5.0312 2-13.529-7.683-33.05-12.349-54.375-9.6562-2.7635 0.34885-5.594 0.80039-8.4062 1.4062-14.098 3.4813-26.673 8.6918-37.281 14.562v-0.8125c11.314-6.701 25.099-12.711 40.815-16.592 2.8123-0.60586 5.6427-1.0886 8.4062-1.4375 4.1448-0.52328 8.2075-0.7507 12.188-0.75z" fill="#132c51"/>
      <path id="path5029" d="m134.97 44.043c-3.8263 0.01024-7.7363 0.24722-11.719 0.75-2.7298 0.3446-5.5289 0.83864-8.3125 1.4375-0.0101 0.0022-0.0209-0.0022-0.0312 0-5.0098 1.2382-9.7414 2.78-14.344 4.4062 3.3996-1.096 6.8659-2.0791 10.469-2.9688a0.73009 0.73009 0 0 1 0.0312 0c2.8358-0.61091 5.687-1.0864 8.4688-1.4375 21.315-2.691 40.802 1.9026 54.469 9.5625 1.0912-0.44101 2.1993-0.85992 3.2812-1.2812-10.872-6.2107-25.732-10.513-42.312-10.469z" fill="#ffd543"/>
      <path id="path5027" d="m122.19 52.543c24.183 0.12208 44.956 9.6298 57.062 21.188-1.6581 0.34047-3.3452 0.68247-5.0312 1.0625-13.71-12.381-37.45-22.056-64.44-19.75-13.184 1.542-25.263 5.188-35.842 9.5v-1.25c11.478-4.8188 24.934-8.6737 39.75-10.406 2.8672-0.24496 5.7146-0.35781 8.5-0.34375z" fill="#132c51"/>
      <path id="path5025" d="m122.19 53.168c-2.7662-0.01396-5.5892 0.10041-8.4375 0.34375-9.2178 1.0779-17.842 3.0195-25.844 5.4688 6.8467-2.0385 14.134-3.6646 21.812-4.5625 27-2.3068 50.766 7.2843 64.656 19.688 1.1672-0.26022 2.3166-0.48182 3.4688-0.71875-12.09-11.049-32.22-20.101-55.65-20.219z" fill="#ffd543"/>
      <path id="path5023" d="m106.69 60.949c5.353 0.02714 10.89 0.36347 16.562 1.0938 2.5797 0.41425 5.1118 0.9693 7.5625 1.5938 21.277 5.4215 37.499 18.346 45.625 31.188-1.5355-0.06435-3.1187-0.12055-4.6875-0.15625-9.35-13.919-28.13-27.665-52.41-31.564-16.45-2.117-31.931-0.299-44.715 2.469l0.15625-0.84375c9.2781-2.3519 20.13-3.841 31.906-3.7813z" fill="#132c51"/>
      <path id="rect4913" d="m104.97 61.574c-1.9498 0.02204-3.8844 0.08767-5.7812 0.1875 6.4795-0.29132 13.257-0.11504 20.219 0.78125 24.292 3.9009 43.145 17.553 52.656 31.531 1.0855 0.0272 2.1205 0.0804 3.1875 0.125-8.222-12.389-23.949-24.779-44.562-30.031-2.4338-0.62014-4.9686-1.1197-7.5312-1.5313-6.2679-0.80699-12.338-1.1286-18.188-1.0625z" fill="#ffd543"/>
      <path id="path3954-2" d="m112.84 37.031c-3.98-0.000698-8.0427 0.22672-12.188 0.75-2.7635 0.34886-5.594 0.83164-8.4062 1.4375-15.716 3.8808-29.501 9.8916-40.812 16.594v0.8125c10.608-5.8707 23.183-11.081 37.281-14.562 2.8123-0.60586 5.6427-1.0574 8.4062-1.4062 21.325-2.6923 40.846 1.9732 54.375 9.6562 1.6876-0.68469 3.3686-1.3619 5.0312-2-11.018-6.6517-26.441-11.278-43.688-11.281zm-0.375 0.71875c16.581-0.04435 31.44 4.258 42.312 10.469-1.082 0.42134-2.1901 0.84024-3.2812 1.2812-13.667-7.6599-33.153-12.254-54.469-9.5625-2.7817 0.35115-5.633 0.82659-8.4688 1.4375a0.73009 0.73009 0 0 0 -0.03125 0c-3.6028 0.88968-7.0691 1.8728-10.469 2.9688 4.6024-1.6263 9.334-3.1681 14.344-4.4062 0.0103-0.0022 0.02105 0.0022 0.03125 0 2.7836-0.59886 5.5827-1.0929 8.3125-1.4375 3.9824-0.50278 7.8924-0.73976 11.719-0.75zm-12.781 8.5c-2.7854-0.01406-5.6328 0.09879-8.5 0.34375-14.808 1.732-28.263 5.587-39.741 10.406v1.25c10.579-4.3116 22.659-7.9582 35.844-9.5 26.986-2.3056 50.733 7.369 64.438 19.75 1.686-0.38003 3.3731-0.72203 5.0312-1.0625-12.11-11.558-32.88-21.066-57.062-21.188zm0 0.625c23.429 0.11827 43.567 9.1704 55.656 20.219-1.1521 0.23693-2.3015 0.45853-3.4688 0.71875-13.88-12.404-37.65-21.995-64.651-19.688-7.679 0.898-14.966 2.524-21.813 4.563 8.002-2.45 16.626-4.391 25.844-5.469 2.848-0.244 5.671-0.358 8.438-0.344zm-15.5 7.7812c-11.768-0.059-22.62 1.43-31.898 3.782l-0.156 0.843c12.784-2.7681 28.269-4.5867 44.719-2.4688 24.28 3.8989 43.054 17.644 52.406 31.562 1.5688 0.03574 3.152 0.09189 4.6875 0.15625-8.13-12.841-24.35-25.765-45.63-31.186-2.45-0.625-4.98-1.18-7.56-1.594-5.672-0.73-11.209-1.067-16.562-1.094zm-1.7188 0.625c5.8494-0.06612 11.92 0.25551 18.188 1.0625 2.5626 0.41151 5.0975 0.91111 7.5312 1.5312 20.613 5.2524 36.341 17.642 44.562 30.031-1.067-0.04462-2.102-0.09783-3.1875-0.125-9.5-13.978-28.35-27.63-52.644-31.531-6.961-0.896-13.739-1.073-20.218-0.781 1.8969-0.09983 3.8314-0.16546 5.7812-0.1875z" fill="#d69600" transform="translate(22.5 6.293)"/>
      <path id="path3002" d="m24.469 33.031 5 22.031-19.438 11.562 22.5 2.0625 5 22.031 8.9062-20.75 22.5 2.0625l-16.968-14.905 8.906-20.75-19.406 11.563-17-14.906zm7.031 10.781 8.031 7.063-6.281 3.75-1.75-10.813zm21.188 2.688-4.188 9.844-5.531-4.782 9.719-5.062zm-11.344 5.875 6.281 5.844-3.187 8.156-8.938-0.719-1.844-8.937 7.688-4.344zm-9.406 6.094 1.562 7.156-10.812-1.781l9.25-5.375zm17.062 1.281 7.844 7.656-10.656-0.906 2.812-6.75zm-13.094 7.594 7.282 0.656l-4.9062 9.7812-2.375-10.438z" fill="#d69600" transform="translate(22.5 6.293)"/>
      <path id="path3002-2" d="m27.062 37.344 4.1562 18.469-16.25 9.6562 18.844 1.75 4.1562 18.469 7.4688-17.406 18.844 1.75-14.219-12.5 7.4688-17.375-16.25 9.6875-14.219-12.5zm4.438 6.468 8.031 7.063-6.281 3.75-1.75-10.813zm21.188 2.688-4.188 9.844-5.531-4.782 9.719-5.062zm-11.344 5.875 6.281 5.844-3.187 8.156-8.938-0.719-1.844-8.937 7.688-4.344zm-9.406 6.094 1.562 7.156-10.812-1.781l9.25-5.375zm17.062 1.281 7.844 7.656-10.656-0.906 2.812-6.75zm-13.094 7.594 7.282 0.656l-4.9062 9.7812-2.375-10.438z" fill="#ffd543" transform="translate(22.5 6.293)"/>
      <path id="path6186" d="m40.916 70.878 15.17 1.4834-0.29791-1.3829-9.5649-1.0881 8.2961-4.7877-0.47904-1.898-13.125 7.6734z" fill="#d69600"/>
      <path id="path6186-0" d="m77.587 49.166-5.8791 14.063-1.0768-0.91738 3.5722-8.9393-8.1461 5.0387-1.4447-1.3209 12.975-7.9244z" fill="#d69600"/>
      <path id="path6186-0-4" d="m51.354 46.66 11.498 10.007-1.2097 0.73332-7.3604-6.2045 2.2183 9.3181-1.7085 0.95547-3.4373-14.809z" fill="#d69600"/>
      <path id="path6186-0-4-4" d="m60.824 88.42-3.3431-14.871 1.4091 0.12503 2.2595 9.3576 3.7279-8.8233 1.9426 0.24128-5.996 13.971z" fill="#d69600"/>
      <path id="path6186-0-4-4-0" d="m83.562 74.791-15.197-1.1815 0.53417-1.3099 9.6082 0.59444-7.3354-6.1595 0.8023-1.7856 11.587 9.842z" fill="#d69600"/>
      <path id="path3133" d="m63.688 58.012-8.282 4.843 2.032 9.375 9.562 0.969 3.844-8.781-7.156-6.406zm-0.125 1.6562 5.5938 5-3 6.875-7.4688-0.75-1.5938-7.3438 6.4688-3.7812z" fill="#d69600"/>
    </g>
  </g>

</svg>
