<?xml version="1.0" encoding="UTF-8" standalone="no"?>
<!-- Created with Inkscape (http://www.inkscape.org/) -->

<svg
   xmlns:dc="http://purl.org/dc/elements/1.1/"
   xmlns:cc="http://creativecommons.org/ns#"
   xmlns:rdf="http://www.w3.org/1999/02/22-rdf-syntax-ns#"
   xmlns:svg="http://www.w3.org/2000/svg"
   xmlns="http://www.w3.org/2000/svg"
   xmlns:sodipodi="http://sodipodi.sourceforge.net/DTD/sodipodi-0.dtd"
   xmlns:inkscape="http://www.inkscape.org/namespaces/inkscape"
   version="1.1"
   id="svg8194"
   xml:space="preserve"
   width="800"
   height="800"
   viewBox="0 0 800 800"
   sodipodi:docname="eagle-symbol-publicdomainvectors.org.svg"
   inkscape:version="0.92.4 (5da689c313, 2019-01-14)"><metadata
     id="metadata8200"><rdf:RDF><cc:Work
         rdf:about=""><dc:format>image/svg+xml</dc:format><dc:type
           rdf:resource="http://purl.org/dc/dcmitype/StillImage" /><dc:title></dc:title></cc:Work></rdf:RDF></metadata><defs
     id="defs8198"><clipPath
       clipPathUnits="userSpaceOnUse"
       id="clipPath8210"><path
         d="M 0,600 H 600 V 0 H 0 Z"
         id="path8208"
         inkscape:connector-curvature="0" /></clipPath></defs><sodipodi:namedview
     pagecolor="#ffffff"
     bordercolor="#666666"
     borderopacity="1"
     objecttolerance="10"
     gridtolerance="10"
     guidetolerance="10"
     inkscape:pageopacity="0"
     inkscape:pageshadow="2"
     inkscape:window-width="1920"
     inkscape:window-height="1018"
     id="namedview8196"
     showgrid="false"
     inkscape:zoom="0.93105948"
     inkscape:cx="425.42373"
     inkscape:cy="408.47458"
     inkscape:window-x="-8"
     inkscape:window-y="-8"
     inkscape:window-maximized="1"
     inkscape:current-layer="g8202" /><g
     id="g8202"
     inkscape:groupmode="layer"
     inkscape:label="eagle-symbol-publicdomainvectors.org"
     transform="matrix(1.3333333,0,0,-1.3333333,0,800)"><g
       id="g8204"><g
         id="g8206"
         clip-path="url(#clipPath8210)"><path
           d="m 349.895,155.876 c -0.366,1.353 -0.739,2.89 -1.211,4.545 -1.823,6.649 -4.479,15.444 -7.061,24.261 -2.646,8.796 -5.293,17.594 -7.277,24.193 -0.168,0.543 -0.33,1.066 -0.489,1.575 -0.461,-0.587 -0.937,-1.161 -1.429,-1.723 0.041,-0.134 0.078,-0.265 0.121,-0.399 2.025,-6.588 4.73,-15.366 7.435,-24.145 2.768,-8.761 5.463,-17.544 7.655,-24.08 0.531,-1.638 1.074,-3.124 1.525,-4.45 0.457,-1.324 0.865,-2.473 1.219,-3.417 0.704,-1.877 1.107,-2.953 1.11,-2.962 l 0.011,0.003 0.014,0.002 c 0,0.002 -0.266,1.121 -0.731,3.079 -0.232,0.982 -0.535,2.165 -0.892,3.518 m -15.229,-13.349 c -0.227,1.459 -0.445,3.113 -0.748,4.902 -1.148,7.175 -2.912,16.694 -4.6,26.229 -1.754,9.524 -3.507,19.046 -4.822,26.19 -0.105,0.548 -0.207,1.079 -0.307,1.599 -0.556,-0.376 -1.123,-0.739 -1.699,-1.088 0.053,-0.287 0.104,-0.565 0.156,-0.859 1.362,-7.135 3.174,-16.646 4.987,-26.158 1.879,-9.497 3.683,-19.013 5.209,-26.113 0.367,-1.781 0.758,-3.4 1.076,-4.842 0.32,-1.442 0.611,-2.697 0.871,-3.724 0.515,-2.055 0.808,-3.231 0.809,-3.234 l 0.011,0.002 0.012,0.002 c 0,0.005 -0.152,1.203 -0.42,3.308 -0.131,1.052 -0.312,2.326 -0.535,3.786 M 381.32,248.58 c -0.019,1.102 -0.136,2.665 -0.265,4.543 -0.311,3.746 -0.963,8.71 -1.524,13.687 -0.578,4.974 -1.236,9.937 -1.734,13.66 -0.211,1.501 -0.395,2.787 -0.539,3.803 -0.211,1.498 -0.338,2.395 -0.338,2.395 l -1.762,-0.236 c 0,0 0.098,-0.799 0.266,-2.136 0.131,-1.053 0.305,-2.434 0.508,-4.075 0.492,-3.723 1.158,-8.686 1.902,-13.638 0.764,-4.948 1.43,-9.911 2.125,-13.606 0.371,-1.847 0.672,-3.384 0.943,-4.455 0.075,-0.309 0.139,-0.572 0.196,-0.8 0.14,-0.559 0.232,-0.877 0.232,-0.877 l 0.024,0.002 c 0,0 0.001,0.429 -0.016,1.171 -0.006,0.172 -0.01,0.353 -0.018,0.562 m -19.189,-77 c -0.502,1.246 -1.033,2.667 -1.674,4.191 -2.498,6.123 -6.049,14.192 -9.525,22.292 -3.493,8.091 -7.053,16.154 -9.735,22.199 -0.287,0.64 -0.558,1.246 -0.822,1.84 -0.301,-0.82 -0.631,-1.621 -0.977,-2.414 0.026,-0.065 0.051,-0.123 0.081,-0.187 2.671,-6.047 6.244,-14.105 9.886,-22.132 3.655,-8.02 7.239,-16.074 10.09,-22.04 0.701,-1.498 1.395,-2.846 1.979,-4.056 0.589,-1.208 1.115,-2.255 1.564,-3.113 0.895,-1.708 1.406,-2.687 1.408,-2.689 l 0.008,0.005 0.014,0.006 c 0,0 -0.379,1.035 -1.047,2.85 -0.33,0.907 -0.752,2 -1.25,3.248 m 7.414,16.897 c -0.641,1.139 -1.33,2.445 -2.141,3.837 -3.177,5.598 -7.621,12.94 -11.994,20.321 -4.39,7.375 -8.844,14.708 -12.193,20.203 -0.141,0.231 -0.268,0.438 -0.406,0.663 -0.077,-1.032 -0.182,-2.058 -0.331,-3.07 0.284,-0.47 0.573,-0.944 0.872,-1.433 3.076,-5.057 6.806,-11.161 10.593,-17.253 4.541,-7.281 9.018,-14.602 12.526,-20 0.863,-1.359 1.705,-2.572 2.425,-3.664 0.721,-1.093 1.362,-2.036 1.905,-2.806 1.08,-1.533 1.697,-2.411 1.701,-2.414 v -0.002 l 0.019,0.014 c 0,0.002 -0.496,0.952 -1.363,2.623 -0.433,0.834 -0.974,1.837 -1.613,2.981 m -51.258,-55.774 c -0.086,1.567 -0.183,3.33 -0.291,5.257 -0.476,7.702 -1.348,17.949 -2.144,28.205 -0.862,10.249 -1.723,20.499 -2.368,28.186 -0.058,0.631 -0.113,1.241 -0.17,1.839 -0.601,-0.194 -1.212,-0.367 -1.826,-0.532 0.039,-0.48 0.08,-0.97 0.121,-1.472 0.694,-7.682 1.616,-17.927 2.536,-28.17 0.99,-10.239 1.902,-20.483 2.761,-28.15 0.229,-1.917 0.44,-3.673 0.623,-5.23 0.184,-1.555 0.36,-2.912 0.522,-4.027 0.32,-2.226 0.504,-3.502 0.504,-3.505 l 0.011,0.001 0.014,10e-4 c 0,0.006 -0.041,1.292 -0.109,3.539 -0.035,1.126 -0.096,2.492 -0.184,4.058 m -60.116,96.3 c 0.161,0.265 0.329,0.54 0.486,0.798 -0.161,0.99 -0.285,1.994 -0.376,3.004 -3.345,-5.492 -7.79,-12.811 -12.171,-20.17 -4.373,-7.381 -8.815,-14.723 -11.995,-20.321 -0.809,-1.392 -1.5,-2.698 -2.139,-3.837 -0.636,-1.144 -1.181,-2.147 -1.614,-2.981 -0.868,-1.671 -1.363,-2.623 -1.363,-2.623 l 0.01,-0.007 0.011,-0.007 c 0,0.002 0.619,0.881 1.702,2.416 0.542,0.77 1.181,1.713 1.904,2.806 0.719,1.092 1.562,2.305 2.423,3.664 3.511,5.398 7.985,12.719 12.528,20 3.786,6.094 7.517,12.198 10.594,17.258 m 40.203,-34.737 c -0.001,-0.241 -0.002,-0.477 -0.002,-0.723 0.022,-8.232 0.052,-19.209 0.084,-30.184 0.096,-10.974 0.116,-21.949 0.308,-30.18 0.062,-2.058 0.117,-3.945 0.168,-5.617 0.047,-1.671 0.105,-3.13 0.171,-4.33 0.124,-2.4 0.196,-3.773 0.196,-3.773 h 0.025 c 0,0 0.073,1.373 0.197,3.773 0.065,1.2 0.121,2.659 0.17,4.33 0.051,1.672 0.107,3.559 0.168,5.617 0.192,8.231 0.212,19.206 0.308,30.18 0.033,10.975 0.062,21.952 0.084,30.184 0,0.228 0,0.451 -10e-4,0.676 -0.628,0.005 -1.254,0.015 -1.876,0.047 m -36.489,24.88 c -0.355,0.784 -0.689,1.576 -0.997,2.381 -0.186,-0.42 -0.369,-0.825 -0.567,-1.265 -2.68,-6.045 -6.241,-14.108 -9.732,-22.199 -3.48,-8.1 -7.027,-16.169 -9.526,-22.292 -0.64,-1.524 -1.173,-2.945 -1.673,-4.191 -0.499,-1.248 -0.921,-2.341 -1.253,-3.248 -0.663,-1.815 -1.046,-2.85 -1.046,-2.85 l 0.014,-0.006 0.011,-0.005 c 0,0.002 0.51,0.979 1.407,2.689 0.448,0.858 0.974,1.905 1.561,3.113 0.588,1.21 1.281,2.558 1.98,4.056 2.852,5.966 6.436,14.02 10.091,22.04 3.577,7.875 7.076,15.772 9.73,21.777 m 26.151,-24.795 c -0.645,-7.687 -1.508,-17.937 -2.369,-28.186 -0.795,-10.256 -1.667,-20.503 -2.144,-28.205 -0.108,-1.927 -0.204,-3.69 -0.29,-5.257 -0.087,-1.566 -0.15,-2.932 -0.182,-4.058 -0.07,-2.247 -0.11,-3.534 -0.11,-3.539 l 0.012,-10e-4 0.012,-0.001 c 0.001,0.003 0.183,1.279 0.503,3.505 0.162,1.115 0.337,2.472 0.522,4.027 0.186,1.557 0.395,3.313 0.623,5.23 0.861,7.667 1.772,17.911 2.761,28.15 0.922,10.243 1.844,20.488 2.535,28.17 0.04,0.458 0.075,0.905 0.111,1.343 -0.616,0.159 -1.225,0.331 -1.83,0.516 -0.05,-0.552 -0.101,-1.114 -0.154,-1.694 m -20.511,15.661 c -0.115,-0.371 -0.232,-0.749 -0.351,-1.137 -1.984,-6.599 -4.631,-15.397 -7.277,-24.193 -2.583,-8.817 -5.239,-17.612 -7.059,-24.261 -0.471,-1.655 -0.847,-3.192 -1.211,-4.545 -0.359,-1.353 -0.661,-2.536 -0.892,-3.518 -0.464,-1.952 -0.729,-3.068 -0.731,-3.077 l 0.012,-0.004 0.011,-0.005 c 0,0 0.404,1.08 1.109,2.964 0.355,0.944 0.763,2.093 1.218,3.417 0.453,1.326 0.997,2.812 1.53,4.45 2.189,6.536 4.885,15.319 7.651,24.08 2.703,8.774 5.406,17.546 7.434,24.13 -0.497,0.553 -0.978,1.121 -1.444,1.699 m 9.499,-10.164 c -1.314,-7.144 -3.066,-16.666 -4.822,-26.19 -1.687,-9.535 -3.452,-19.054 -4.6,-26.229 -0.303,-1.789 -0.523,-3.443 -0.75,-4.902 -0.223,-1.46 -0.403,-2.734 -0.534,-3.786 -0.267,-2.105 -0.421,-3.303 -0.421,-3.308 l 0.014,-0.002 0.011,-0.002 c 10e-4,0.004 0.294,1.18 0.807,3.234 0.258,1.027 0.552,2.282 0.873,3.724 0.316,1.442 0.709,3.061 1.075,4.842 1.528,7.1 3.332,16.616 5.209,26.113 1.814,9.512 3.627,19.023 4.987,26.158 0.037,0.207 0.075,0.405 0.11,0.605 -0.577,0.343 -1.146,0.699 -1.704,1.066 -0.085,-0.432 -0.168,-0.872 -0.255,-1.323 m 127.992,49.585 c -0.131,1.131 -0.403,2.727 -0.721,4.647 -0.678,3.826 -1.848,8.869 -2.916,13.933 -1.09,5.061 -2.256,10.102 -3.139,13.884 -0.265,1.102 -0.502,2.079 -0.705,2.935 -0.502,2.076 -0.808,3.355 -0.808,3.355 l -1.735,-0.403 c 0,0 0.26,-1.154 0.682,-3.041 0.207,-0.93 0.455,-2.024 0.732,-3.272 0.875,-3.783 2.051,-8.822 3.305,-13.845 1.269,-5.019 2.449,-10.056 3.508,-13.796 0.554,-1.864 1.008,-3.419 1.388,-4.493 0.114,-0.346 0.209,-0.623 0.293,-0.868 0.184,-0.519 0.299,-0.821 0.299,-0.821 l 0.024,0.006 c 0,0 -0.035,0.404 -0.121,1.109 -0.026,0.202 -0.053,0.418 -0.086,0.67 m 177.623,104.485 c -1.375,0.559 -3.371,1.265 -5.762,2.128 -2.408,0.81 -5.203,1.783 -8.225,2.746 -3.019,0.979 -6.238,2.023 -9.457,3.066 -6.437,2.096 -12.902,4.105 -17.75,5.612 -2.677,0.816 -4.836,1.472 -6.257,1.905 -1.157,0.352 -1.836,0.557 -1.836,0.557 l -0.53,-1.699 c 0,0 0.668,-0.212 1.805,-0.571 1.414,-0.449 3.574,-1.135 6.26,-1.988 4.847,-1.508 11.31,-3.519 17.801,-5.442 3.244,-0.965 6.486,-1.931 9.527,-2.836 3.035,-0.927 5.902,-1.69 8.344,-2.379 2.462,-0.632 4.509,-1.172 5.959,-1.487 0.283,-0.066 0.521,-0.119 0.757,-0.173 0.963,-0.216 1.526,-0.329 1.526,-0.329 l 0.008,0.023 c 0,0 -0.401,0.169 -1.098,0.447 -0.305,0.122 -0.65,0.259 -1.072,0.42 m -19.914,-40.191 c -1.186,0.892 -2.932,2.091 -5.016,3.542 -2.119,1.406 -4.568,3.067 -7.238,4.778 -2.662,1.727 -5.504,3.569 -8.342,5.408 -5.678,3.689 -11.402,7.302 -15.695,10.009 -2.186,1.361 -3.996,2.489 -5.256,3.273 -1.223,0.761 -1.928,1.2 -1.928,1.2 l -0.949,-1.506 c 0,0 0.672,-0.431 1.834,-1.171 1.252,-0.802 3.074,-1.967 5.295,-3.387 4.293,-2.709 10.015,-6.322 15.789,-9.857 2.883,-1.773 5.765,-3.544 8.47,-5.203 2.692,-1.68 5.266,-3.16 7.446,-4.454 2.213,-1.248 4.053,-2.298 5.375,-2.979 0.295,-0.158 0.556,-0.294 0.793,-0.421 0.812,-0.422 1.277,-0.651 1.277,-0.651 l 0.014,0.02 c 0,0 -0.319,0.249 -0.871,0.66 -0.28,0.209 -0.598,0.443 -0.998,0.739 m 12.365,21.274 c -1.328,0.672 -3.26,1.542 -5.567,2.601 -2.334,1.008 -5.037,2.211 -7.968,3.422 -2.928,1.228 -6.047,2.536 -9.168,3.844 -6.241,2.624 -12.514,5.166 -17.219,7.07 -2.559,1.018 -4.629,1.842 -6.01,2.392 -1.168,0.465 -1.851,0.736 -1.851,0.736 l -0.666,-1.649 c 0,0 0.629,-0.26 1.701,-0.701 1.373,-0.567 3.486,-1.436 6.117,-2.522 4.707,-1.906 10.98,-4.448 17.287,-6.905 3.152,-1.233 6.305,-2.465 9.26,-3.62 2.945,-1.177 5.74,-2.177 8.115,-3.066 2.4,-0.834 4.395,-1.544 5.817,-1.978 0.283,-0.092 0.527,-0.17 0.761,-0.244 0.928,-0.292 1.467,-0.447 1.467,-0.447 l 0.012,0.022 c 0,0 -0.381,0.201 -1.039,0.53 -0.299,0.148 -0.637,0.315 -1.049,0.515 m 12.955,39.701 c -1.436,0.387 -3.502,0.844 -5.979,1.411 -2.488,0.511 -5.38,1.137 -8.5,1.724 -3.115,0.605 -6.439,1.249 -9.759,1.895 -6.643,1.297 -13.305,2.505 -18.301,3.41 -2.877,0.503 -5.172,0.906 -6.627,1.162 -1.076,0.189 -1.707,0.299 -1.707,0.299 l -0.317,-1.752 1.682,-0.316 c 1.453,-0.271 3.75,-0.703 6.635,-1.245 4.994,-0.906 11.652,-2.114 18.33,-3.236 3.336,-0.562 6.676,-1.126 9.805,-1.654 3.123,-0.552 6.062,-0.962 8.568,-1.347 2.521,-0.329 4.617,-0.616 6.098,-0.752 0.281,-0.03 0.517,-0.053 0.75,-0.078 0.994,-0.1 1.576,-0.144 1.576,-0.144 l 0.002,0.024 c 0,0 -0.42,0.12 -1.153,0.314 -0.316,0.084 -0.669,0.177 -1.103,0.285 m 11.205,68.3 -0.004,0.012 c 0,0 -0.965,-0.316 -2.654,-0.867 -0.848,-0.274 -1.863,-0.626 -3.028,-1.045 -1.16,-0.421 -2.484,-0.864 -3.904,-1.407 -5.703,-2.112 -13.217,-5.144 -20.762,-8.106 -6.845,-2.701 -13.65,-5.456 -19.062,-7.656 -0.549,-0.225 -1.096,-0.448 -1.613,-0.659 -3.743,-1.542 -6.621,-2.729 -8.151,-3.358 -0.765,-0.316 -1.217,-0.503 -1.217,-0.503 l 0.672,-1.649 c 0,0 0.272,0.11 0.752,0.302 1.358,0.545 4.489,1.798 8.651,3.467 2.273,0.923 4.857,1.972 7.613,3.099 4.078,1.668 8.541,3.503 13,5.37 7.471,3.141 14.971,6.212 20.529,8.679 1.395,0.602 2.655,1.208 3.78,1.717 1.125,0.511 2.099,0.969 2.898,1.36 1.52,0.75 2.395,1.179 2.475,1.219 l 0.031,0.014 z m -8.322,-47.067 c -1.471,0.214 -3.576,0.427 -6.104,0.698 -2.531,0.215 -5.476,0.496 -8.644,0.712 -3.162,0.234 -6.537,0.483 -9.912,0.732 -6.75,0.507 -13.508,0.921 -18.573,1.233 -3.121,0.173 -5.595,0.311 -7.041,0.391 -0.902,0.051 -1.408,0.078 -1.408,0.078 l -0.107,-1.777 c 0,0 0.507,-0.034 1.41,-0.095 1.443,-0.097 3.914,-0.264 7.031,-0.475 5.065,-0.312 11.822,-0.73 18.582,-1.056 3.381,-0.166 6.76,-0.333 9.93,-0.49 3.168,-0.178 6.133,-0.24 8.67,-0.327 2.539,-0.031 4.656,-0.069 6.142,-0.029 0.284,0.002 0.522,0.006 0.76,0.01 0.996,0.016 1.576,0.042 1.576,0.042 v 0.025 c 0,0 -0.429,0.069 -1.177,0.176 -0.325,0.045 -0.69,0.096 -1.135,0.152 M 503.883,268.414 c -0.285,0.622 -0.649,1.37 -1.08,2.218 -0.438,0.845 -0.895,1.817 -1.451,2.845 -0.555,1.033 -1.155,2.149 -1.788,3.331 -0.615,1.187 -1.363,2.422 -2.093,3.674 -1.477,2.524 -3.051,5.215 -4.627,7.908 -3.151,5.383 -6.367,10.727 -8.785,14.729 -0.717,1.173 -1.352,2.212 -1.909,3.119 -1.337,2.185 -2.162,3.531 -2.162,3.531 l -1.523,-0.919 c 0,0 0.797,-1.339 2.09,-3.517 0.552,-0.926 1.181,-1.987 1.892,-3.184 2.412,-4.008 5.639,-9.345 8.932,-14.645 3.281,-5.299 6.562,-10.599 9.023,-14.572 0.612,-0.996 1.225,-1.882 1.739,-2.681 0.519,-0.799 0.984,-1.488 1.38,-2.047 0.268,-0.391 0.485,-0.698 0.672,-0.965 0.356,-0.501 0.571,-0.792 0.571,-0.792 l 0.021,0.011 c 0,0 -0.135,0.307 -0.367,0.814 -0.141,0.307 -0.313,0.674 -0.535,1.142 m -48.377,-12.497 c -0.176,0.595 -0.406,1.309 -0.69,2.12 -0.281,0.815 -0.568,1.744 -0.941,2.734 -0.74,1.976 -1.574,4.314 -2.594,6.752 -0.996,2.448 -2.054,5.062 -3.113,7.676 -2.119,5.226 -4.311,10.42 -5.959,14.314 -0.223,0.52 -0.436,1.012 -0.637,1.481 -1.312,3.046 -2.152,4.993 -2.152,4.993 l -1.641,-0.694 c 0,0 0.768,-1.852 1.969,-4.755 0.231,-0.554 0.471,-1.132 0.729,-1.757 1.644,-3.895 3.841,-9.088 6.111,-14.25 2.287,-5.163 4.508,-10.329 6.275,-14.177 0.432,-0.966 0.881,-1.827 1.25,-2.604 0.375,-0.776 0.711,-1.448 1.004,-1.993 0.197,-0.378 0.354,-0.676 0.492,-0.935 0.266,-0.493 0.43,-0.782 0.43,-0.782 l 0.022,0.009 c 0,0 -0.096,0.345 -0.27,0.933 -0.08,0.266 -0.168,0.568 -0.285,0.935 m 91.953,39.047 c -1.025,1.074 -2.557,2.538 -4.379,4.307 -1.863,1.726 -4.014,3.762 -6.373,5.882 -2.352,2.131 -4.857,4.407 -7.363,6.68 -5.008,4.555 -10.078,9.04 -13.879,12.403 -1.861,1.629 -3.414,2.988 -4.526,3.958 -1.166,1.021 -1.843,1.614 -1.843,1.614 l -1.178,-1.334 c 0,0 0.635,-0.568 1.74,-1.56 1.104,-0.987 2.674,-2.395 4.561,-4.086 3.801,-3.364 8.869,-7.853 13.996,-12.271 2.558,-2.214 5.121,-4.423 7.523,-6.499 2.383,-2.091 4.684,-3.967 6.629,-5.595 1.987,-1.586 3.631,-2.921 4.822,-3.804 0.311,-0.238 0.581,-0.441 0.819,-0.619 0.672,-0.505 1.055,-0.776 1.055,-0.776 l 0.017,0.017 c 0,0 -0.256,0.277 -0.691,0.731 -0.254,0.259 -0.547,0.566 -0.93,0.952 m -117.4,-43.069 c -0.241,1.162 -0.67,2.792 -1.176,4.751 -1.045,3.91 -2.735,9.034 -4.317,14.181 -1.603,5.147 -3.281,10.266 -4.545,14.103 -0.238,0.703 -0.455,1.348 -0.66,1.958 -0.912,2.708 -1.492,4.425 -1.492,4.425 l -1.689,-0.556 c 0,0 0.506,-1.577 1.31,-4.096 0.229,-0.708 0.475,-1.475 0.746,-2.318 1.256,-3.84 2.944,-8.957 4.703,-14.05 1.782,-5.09 3.475,-10.197 4.895,-13.986 0.736,-1.885 1.34,-3.457 1.826,-4.541 0.153,-0.358 0.278,-0.645 0.389,-0.895 0.224,-0.509 0.367,-0.807 0.367,-0.807 l 0.025,0.006 c -0.003,0 -0.07,0.374 -0.211,1.035 -0.048,0.229 -0.105,0.492 -0.171,0.79 m 94.875,24.881 c -0.684,1.273 -1.743,3.037 -2.989,5.168 -0.644,1.05 -1.347,2.187 -2.088,3.391 -0.724,1.212 -1.566,2.48 -2.427,3.744 -1.715,2.559 -3.551,5.288 -5.381,8.018 -3.658,5.468 -7.397,10.877 -10.195,14.937 -1.416,2.027 -2.596,3.713 -3.42,4.892 -0.823,1.175 -1.291,1.846 -1.291,1.846 l -1.465,-1.012 c 0,0 0.478,-0.705 1.312,-1.928 0.809,-1.186 1.948,-2.859 3.313,-4.866 2.804,-4.058 6.535,-9.473 10.347,-14.832 3.809,-5.377 7.608,-10.703 10.407,-14.773 1.459,-1.993 2.65,-3.668 3.545,-4.8 0.3,-0.397 0.541,-0.707 0.75,-0.977 0.4,-0.514 0.644,-0.814 0.644,-0.814 l 0.022,0.015 c 0,0 -0.155,0.294 -0.416,0.781 -0.174,0.323 -0.387,0.712 -0.668,1.21 m -300.976,7.531 c -0.122,-0.869 -0.264,-1.871 -0.425,-3.008 -0.5,-3.72 -1.156,-8.685 -1.734,-13.659 -0.561,-4.977 -1.214,-9.939 -1.522,-13.687 -0.131,-1.878 -0.247,-3.439 -0.267,-4.541 -0.04,-1.101 -0.032,-1.733 -0.033,-1.733 l 0.024,-0.004 c 0,0 0.174,0.609 0.425,1.679 0.273,1.068 0.574,2.608 0.946,4.452 0.696,3.695 1.361,8.659 2.124,13.609 0.743,4.952 1.41,9.913 1.902,13.638 0.158,1.254 0.294,2.353 0.41,3.278 0.227,1.822 0.364,2.933 0.364,2.933 l -1.761,0.233 c 0,0 -0.173,-1.215 -0.453,-3.19 m 256.47,-22.866 c -0.231,0.61 -0.53,1.339 -0.885,2.169 -0.359,0.83 -0.732,1.781 -1.197,2.79 -0.926,2.011 -1.967,4.41 -3.237,6.876 -1.236,2.488 -2.552,5.14 -3.871,7.794 -2.633,5.306 -5.338,10.576 -7.371,14.528 -0.349,0.667 -0.67,1.279 -0.974,1.864 -1.5,2.868 -2.457,4.696 -2.457,4.696 l -1.581,-0.814 c 0,0 0.885,-1.753 2.282,-4.521 0.328,-0.647 0.677,-1.335 1.056,-2.089 2.028,-3.951 4.741,-9.216 7.52,-14.447 2.783,-5.225 5.564,-10.452 7.652,-14.374 0.522,-0.978 1.055,-1.853 1.496,-2.641 0.446,-0.785 0.846,-1.466 1.188,-2.018 0.238,-0.391 0.428,-0.698 0.596,-0.965 0.302,-0.485 0.488,-0.769 0.488,-0.769 l 0.023,0.008 c 0,0 -0.115,0.318 -0.314,0.845 -0.112,0.294 -0.242,0.635 -0.414,1.068 M 300.519,279.05 c 1.265,0 2.518,-0.067 3.756,-0.178 l -2.886,31.772 -2.879,-31.647 c 0.667,0.03 1.336,0.053 2.009,0.053 m -42.773,6.757 c 0.042,-0.804 0.127,-2.323 0.231,-4.303 0.1,-1.48 0.217,-3.206 0.343,-5.055 0.124,-1.85 0.271,-3.822 0.451,-5.791 0.352,-3.944 0.632,-7.88 0.991,-10.83 0.215,-1.473 0.363,-2.703 0.538,-3.559 0.147,-0.857 0.261,-1.346 0.261,-1.346 h 0.013 l 0.01,0.002 c 0,0 0.059,0.499 0.105,1.366 0.076,0.872 0.082,2.109 0.127,3.598 0.034,2.971 -0.201,6.929 -0.357,10.876 -0.072,1.978 -0.18,3.951 -0.293,5.802 -0.113,1.849 -0.219,3.578 -0.309,5.057 -0.149,2.007 -0.265,3.542 -0.322,4.331 -0.029,0.377 -0.045,0.599 -0.045,0.599 l -1.778,-0.116 c 0,0 0.014,-0.233 0.034,-0.631 m 56.24,101.353 c 0.065,-0.732 0.17,-1.461 0.348,-2.18 0.141,-0.728 0.32,-1.45 0.562,-2.156 0.206,-0.72 0.45,-1.427 0.754,-2.116 0.272,-0.706 0.584,-1.392 0.954,-2.058 0.328,-0.688 0.726,-1.338 1.166,-1.965 0.404,-0.653 0.88,-1.251 1.369,-1.848 0.463,-0.619 1.013,-1.159 1.547,-1.719 0.519,-0.583 1.134,-1.053 1.712,-1.576 0.577,-0.527 1.239,-0.938 1.862,-1.411 0.635,-0.46 1.334,-0.806 2.004,-1.214 0.687,-0.369 1.402,-0.68 2.111,-1.021 l 0.09,-0.035 -0.303,-4.369 -0.316,-6.243 c -0.215,-4.163 -0.438,-8.325 -0.569,-12.49 -0.164,-4.165 -0.254,-8.328 -0.355,-12.494 -0.068,-3.604 -0.119,-7.207 -0.145,-10.814 -0.588,-0.463 -1.138,-0.932 -1.648,-1.422 l -1.393,-1.381 -1.281,-1.44 c -0.855,-0.956 -1.6,-1.977 -2.381,-2.974 -0.705,-1.043 -1.474,-2.046 -2.119,-3.124 -0.631,-1.083 -1.355,-2.11 -1.881,-3.252 -0.545,-1.124 -1.166,-2.209 -1.623,-3.371 -0.465,-1.154 -1.023,-2.266 -1.404,-3.45 -0.399,-1.177 -0.842,-2.332 -1.195,-3.517 l -0.914,-3.588 c -0.252,-1.206 -0.442,-2.426 -0.663,-3.631 -0.25,-1.199 -0.322,-2.43 -0.449,-3.645 -0.103,-1.218 -0.226,-2.429 -0.199,-3.653 l -0.025,-3.637 0.113,-1.333 c 0.678,-0.151 1.351,-0.315 2.015,-0.5 l 0.194,1.715 0.603,3.448 c 0.162,1.151 0.475,2.272 0.762,3.393 0.289,1.119 0.484,2.254 0.873,3.342 0.356,1.094 0.674,2.193 1.053,3.274 l 1.258,3.184 c 0.423,1.054 0.935,2.074 1.394,3.108 0.446,1.041 1.055,2.002 1.569,3.008 0.505,1.008 1.166,1.929 1.746,2.89 0.576,0.965 1.257,1.857 1.877,2.787 0.625,0.928 1.357,1.767 2.027,2.654 0.732,0.826 1.435,1.689 2.209,2.456 l 1.152,1.157 1.196,1.059 c 0.806,0.672 1.611,1.286 2.324,1.731 l 1.596,0.992 0.076,1.885 c 0.168,4.162 0.281,8.326 0.388,12.491 0.082,4.167 0.18,8.331 0.202,12.497 0.056,4.167 0.017,8.335 -0.012,12.502 l -0.041,6.253 -0.153,6.254 -0.054,2.144 -1.92,0.528 -1.82,0.5 c -0.586,0.224 -1.192,0.415 -1.774,0.657 -0.566,0.276 -1.154,0.512 -1.713,0.81 -0.541,0.318 -1.135,0.572 -1.652,0.941 -0.52,0.363 -1.088,0.675 -1.565,1.097 -0.496,0.402 -1.019,0.783 -1.466,1.248 -0.469,0.441 -0.94,0.886 -1.348,1.391 -0.436,0.483 -0.856,0.981 -1.236,1.513 -0.412,0.512 -0.786,1.056 -1.12,1.63 -0.369,0.552 -0.685,1.137 -0.972,1.741 -0.322,0.588 -0.592,1.205 -0.828,1.838 -0.268,0.622 -0.52,1.256 -0.707,1.913 -0.219,0.649 -0.428,1.305 -0.567,1.982 -0.152,0.672 -0.336,1.347 -0.426,2.037 -0.103,0.688 -0.265,1.379 -0.32,2.078 l -0.211,2.117 -0.326,-2.115 c -0.111,-0.71 -0.115,-1.426 -0.178,-2.147 -0.072,-0.725 -0.013,-1.444 -0.002,-2.171 0,-0.73 0.077,-1.456 0.168,-2.185 m 112.401,-62.614 c 4.004,0.976 8.023,1.948 11.955,3.247 l 2.969,0.926 2.912,1.092 c 1.945,0.721 3.89,1.444 5.781,2.316 1.904,0.836 3.828,1.633 5.67,2.612 1.861,0.941 3.744,1.839 5.535,2.921 1.814,1.034 3.637,2.064 5.367,3.247 l 2.635,1.718 2.541,1.86 c 3.416,2.449 6.543,5.293 9.584,8.214 2.943,3.024 5.803,6.156 8.273,9.611 1.307,1.67 2.405,3.497 3.584,5.263 1.055,1.848 2.172,3.66 3.084,5.594 1.907,3.813 3.528,7.801 4.602,11.979 1.1,4.167 1.795,8.479 1.807,12.929 l 0.015,5.346 -4.945,-2.163 c -2.899,-1.268 -6,-2.52 -9.068,-3.671 -3.065,-1.193 -6.192,-2.271 -9.301,-3.368 -3.139,-1.023 -6.241,-2.169 -9.405,-3.135 -3.148,-1.008 -6.294,-2.024 -9.48,-2.923 -3.178,-0.93 -6.348,-1.883 -9.557,-2.698 -3.205,-0.826 -6.386,-1.755 -9.617,-2.496 l -9.654,-2.359 -9.725,-2.095 c -3.232,-0.748 -6.511,-1.253 -9.769,-1.891 -3.26,-0.614 -6.51,-1.302 -9.795,-1.779 l -9.84,-1.571 c -3.281,-0.501 -6.586,-0.864 -9.879,-1.329 -3.297,-0.414 -6.592,-0.941 -9.898,-1.208 l -9.928,-1.004 c -3.307,-0.406 -6.649,-0.526 -9.973,-0.793 l -9.988,-0.747 10.012,-0.217 c 3.339,-0.051 6.672,-0.161 10.017,-0.031 l 10.041,0.269 c 3.358,0.049 6.684,0.357 10.028,0.554 3.337,0.238 6.691,0.394 10.019,0.745 l 9.996,1.067 c 3.34,0.311 6.653,0.832 9.975,1.279 3.312,0.501 6.648,0.907 9.941,1.534 l 9.912,1.754 9.866,2.02 c 0.386,0.073 0.765,0.176 1.148,0.257 -0.455,-0.59 -0.941,-1.212 -1.609,-1.797 -0.75,-0.672 -1.407,-1.512 -2.356,-2.189 -0.916,-0.703 -1.855,-1.475 -2.883,-2.231 -1.093,-0.692 -2.23,-1.415 -3.406,-2.161 -1.189,-0.736 -2.533,-1.343 -3.851,-2.058 -1.311,-0.738 -2.758,-1.318 -4.225,-1.94 -1.475,-0.606 -2.945,-1.314 -4.543,-1.808 -1.58,-0.543 -3.184,-1.097 -4.809,-1.658 -1.66,-0.464 -3.345,-0.933 -5.037,-1.407 -0.853,-0.235 -1.707,-0.47 -2.564,-0.707 l -2.615,-0.571 c -1.752,-0.378 -3.512,-0.757 -5.27,-1.135 -3.545,-0.632 -7.113,-1.197 -10.631,-1.724 -3.537,-0.387 -7.019,-0.821 -10.4,-1.148 -3.391,-0.233 -6.67,-0.459 -9.781,-0.674 -3.114,-0.168 -6.067,-0.195 -8.79,-0.291 -2.724,-0.085 -5.226,-0.163 -7.441,-0.108 -2.217,0.021 -4.148,0.037 -5.738,0.05 -3.186,0.027 -5.006,0.043 -5.006,0.043 0,0 1.816,-0.125 4.992,-0.35 1.59,-0.109 3.52,-0.245 5.736,-0.399 2.213,-0.192 4.717,-0.266 7.452,-0.347 2.73,-0.073 5.695,-0.227 8.83,-0.249 3.138,0.025 6.451,0.05 9.877,0.076 3.423,0.121 6.961,0.342 10.564,0.516 3.594,0.316 7.248,0.666 10.9,1.089 1.819,0.278 3.639,0.554 5.452,0.829 l 2.716,0.425 c 0.897,0.189 1.79,0.376 2.68,0.563 1.779,0.384 3.555,0.733 5.297,1.139 1.727,0.478 3.436,0.952 5.115,1.418 1.698,0.417 3.305,1.062 4.901,1.612 1.595,0.562 3.166,1.086 4.634,1.794 1.477,0.682 2.952,1.251 4.313,1.979 1.357,0.747 2.668,1.473 3.924,2.169 1.222,0.781 2.361,1.601 3.465,2.35 1.121,0.716 2.033,1.677 2.972,2.437 0.946,0.751 1.719,1.629 2.436,2.447 0.719,0.814 1.394,1.494 1.937,2.41 0.557,0.848 1.039,1.618 1.449,2.292 0.309,0.605 0.481,1.057 0.667,1.455 0.011,0.027 0.021,0.046 0.035,0.072 3.025,0.718 6.025,1.534 9.031,2.339 3.201,0.828 6.375,1.771 9.545,2.708 -0.08,-0.283 -0.156,-0.561 -0.262,-0.869 -0.586,-1.763 -1.508,-3.909 -2.875,-6.265 -1.387,-2.346 -3.228,-4.875 -5.514,-7.443 -2.281,-2.567 -5.009,-5.167 -8.177,-7.614 -3.164,-2.441 -6.67,-4.855 -10.547,-6.971 -3.869,-2.116 -7.988,-4.147 -12.356,-5.818 -2.144,-0.918 -4.402,-1.621 -6.63,-2.431 -2.262,-0.711 -4.536,-1.431 -6.838,-2.062 -4.61,-1.235 -9.27,-2.33 -13.918,-3.142 -2.323,-0.422 -4.627,-0.835 -6.924,-1.123 -2.291,-0.325 -4.559,-0.661 -6.805,-0.863 -4.473,-0.528 -8.826,-0.788 -12.959,-1.071 -4.133,-0.136 -8.047,-0.36 -11.664,-0.327 -1.807,-0.011 -3.541,-0.021 -5.189,-0.033 -1.649,0.04 -3.213,0.076 -4.682,0.111 -2.941,0.055 -5.506,0.129 -7.613,0.267 -4.223,0.222 -6.633,0.347 -6.633,0.347 0,0 2.402,-0.237 6.609,-0.653 2.104,-0.233 4.664,-0.426 7.606,-0.618 1.468,-0.102 3.035,-0.21 4.685,-0.325 1.653,-0.066 3.389,-0.134 5.203,-0.208 3.627,-0.2 7.563,-0.158 11.729,-0.209 4.164,0.091 8.562,0.151 13.105,0.476 2.276,0.098 4.58,0.334 6.916,0.553 2.338,0.186 4.694,0.497 7.071,0.817 4.754,0.606 9.554,1.502 14.33,2.548 2.385,0.538 4.752,1.168 7.111,1.794 2.332,0.724 4.69,1.345 6.959,2.19 4.596,1.523 8.99,3.437 13.16,5.477 4.176,2.037 8.024,4.423 11.545,6.893 3.524,2.469 6.635,5.163 9.293,7.892 2.664,2.725 4.879,5.487 6.615,8.135 1.717,2.663 2.961,5.195 3.811,7.401 0.83,2.135 1.217,3.978 1.445,5.502 0.727,0.237 1.455,0.471 2.186,0.708 3.185,1.096 6.373,2.17 9.535,3.371 1.385,0.512 2.754,1.037 4.125,1.574 -0.283,-1.909 -0.689,-3.817 -1.205,-5.7 -0.988,-3.666 -2.428,-7.237 -4.104,-10.687 -0.802,-1.745 -1.81,-3.391 -2.746,-5.075 -1.066,-1.607 -2.039,-3.276 -3.228,-4.806 -2.219,-3.167 -4.826,-6.057 -7.51,-8.862 -2.773,-2.719 -5.668,-5.338 -8.789,-7.691 l -2.324,-1.787 -2.424,-1.657 c -1.594,-1.147 -3.281,-2.148 -4.967,-3.159 -1.656,-1.06 -3.416,-1.944 -5.154,-2.873 -1.715,-0.966 -3.526,-1.76 -5.315,-2.596 -1.773,-0.87 -3.613,-1.601 -5.453,-2.331 l -2.754,-1.111 -2.806,-0.991 c -3.719,-1.387 -7.555,-2.466 -11.385,-3.556 l -5.811,-1.433 c -1.941,-0.467 -3.914,-0.798 -5.871,-1.206 -1.959,-0.413 -3.927,-0.765 -5.91,-1.058 -1.978,-0.307 -3.955,-0.665 -5.941,-0.927 -3.989,-0.445 -7.969,-1.024 -11.989,-1.26 l -6.023,-0.467 -6.039,-0.278 c -4.031,-0.263 -8.068,-0.154 -12.111,-0.249 -4.043,-0.045 -8.084,0.115 -12.139,0.162 l -12.154,0.512 12.07,-1.677 c 4.043,-0.372 8.086,-0.862 12.146,-1.144 4.065,-0.211 8.129,-0.561 12.211,-0.578 l 6.116,-0.125 c 2.043,-0.004 4.086,0.069 6.128,0.116 4.088,0.029 8.167,0.4 12.258,0.643 2.039,0.162 4.075,0.422 6.116,0.629 l 3.062,0.329 3.045,0.479 c 2.025,0.342 4.064,0.609 6.082,1.014 z m -85.715,-69.604 c 0.041,-0.545 0.074,-0.849 0.074,-0.849 h 0.025 c 0,0 0.077,0.345 0.188,0.948 0.027,0.145 0.055,0.289 0.086,0.463 0.18,0.898 0.336,2.188 0.551,3.732 0.371,3.095 0.638,7.231 0.988,11.365 0.338,4.133 0.588,8.273 0.773,11.379 0.079,1.562 0.143,2.859 0.19,3.766 0.045,0.897 0.072,1.411 0.072,1.411 l -1.779,0.107 c 0,0 -0.035,-0.501 -0.096,-1.367 -0.064,-0.907 -0.154,-2.217 -0.265,-3.803 -0.188,-3.107 -0.438,-7.246 -0.598,-11.391 -0.149,-4.142 -0.387,-8.287 -0.363,-11.404 0.035,-1.56 0.043,-2.859 0.119,-3.771 0.013,-0.22 0.025,-0.414 0.035,-0.586 m -99.006,26.001 c -0.107,-3.35 -0.248,-7.815 -0.298,-12.285 -0.04,-4.471 -0.163,-8.936 -0.084,-12.292 0.07,-1.679 0.105,-3.076 0.2,-4.059 0.068,-0.979 0.139,-1.54 0.139,-1.542 h 0.025 c 0,0 0.108,0.553 0.242,1.528 0.162,0.973 0.292,2.367 0.474,4.036 0.316,3.344 0.468,7.814 0.708,12.274 0.231,4.464 0.369,8.932 0.473,12.28 0.038,1.631 0.067,2.99 0.089,3.963 0.023,1.027 0.036,1.624 0.036,1.624 l -1.777,0.055 c 0,0 -0.028,-0.656 -0.073,-1.762 -0.039,-0.961 -0.09,-2.262 -0.154,-3.82 m 57.941,139.568 -3.559,-48.501 h 7.12 z m 241.047,-7.234 c 1.465,0.186 3.78,0.479 6.674,0.846 5.031,0.669 11.742,1.561 18.438,2.542 3.349,0.487 6.699,0.974 9.839,1.43 3.143,0.434 6.063,0.946 8.571,1.346 2.498,0.46 4.584,0.83 6.033,1.154 0.303,0.063 0.559,0.116 0.807,0.17 0.935,0.202 1.474,0.331 1.474,0.331 l -0.006,0.025 c 0,-10e-4 -0.42,-0.014 -1.136,-0.053 -0.338,-0.016 -0.721,-0.039 -1.192,-0.069 -1.486,-0.073 -3.593,-0.271 -6.125,-0.49 -2.525,-0.276 -5.47,-0.568 -8.619,-0.966 -3.15,-0.379 -6.512,-0.785 -9.871,-1.189 -6.721,-0.803 -13.43,-1.696 -18.463,-2.366 -2.812,-0.39 -5.07,-0.704 -6.537,-0.907 -1.16,-0.163 -1.84,-0.259 -1.84,-0.259 l 0.233,-1.761 c 0,0 0.636,0.079 1.72,0.216 M 300.519,221.205 c -8.519,0 -15.426,6.905 -15.426,15.426 0,8.518 6.907,15.424 15.426,15.424 8.52,0 15.426,-6.906 15.426,-15.424 0,-8.521 -6.906,-15.426 -15.426,-15.426 m 24.62,15.424 c 0,13.577 -11.045,24.621 -24.62,24.621 -13.576,0 -24.621,-11.044 -24.621,-24.621 0,-13.575 11.045,-24.619 24.621,-24.619 13.575,0 24.62,11.044 24.62,24.619 m 33.121,31.143 c 0.242,-4.461 0.392,-8.931 0.705,-12.273 0.183,-1.671 0.312,-3.063 0.473,-4.038 0.031,-0.216 0.06,-0.404 0.087,-0.578 0.092,-0.606 0.159,-0.948 0.159,-0.948 h 0.023 c 0,0 0.057,0.469 0.119,1.272 0.006,0.092 0.012,0.167 0.02,0.27 0.095,0.981 0.131,2.38 0.201,4.057 0.078,3.358 -0.043,7.82 -0.084,12.292 -0.051,4.47 -0.192,8.937 -0.297,12.285 -0.084,2.034 -0.148,3.647 -0.187,4.606 -0.026,0.622 -0.041,0.976 -0.041,0.976 l -1.78,-0.055 c 0,0 0.01,-0.305 0.02,-0.846 0.021,-0.941 0.06,-2.611 0.107,-4.738 0.106,-3.351 0.244,-7.819 0.475,-12.282 m -42.633,96.959 H 287.15 v -43.084 h 28.477 z m -48.773,-32.624 c 0.108,-4.165 0.223,-8.329 0.389,-12.491 l 0.078,-1.885 1.593,-0.992 c 0.715,-0.445 1.517,-1.059 2.325,-1.731 l 1.197,-1.059 1.15,-1.157 c 0.774,-0.767 1.477,-1.63 2.21,-2.456 0.669,-0.887 1.401,-1.726 2.027,-2.654 0.619,-0.93 1.302,-1.822 1.879,-2.787 0.578,-0.961 1.239,-1.882 1.744,-2.89 0.514,-1.006 1.124,-1.967 1.57,-3.008 0.459,-1.034 0.968,-2.054 1.393,-3.108 l 1.259,-3.184 c 0.376,-1.081 0.697,-2.18 1.051,-3.274 0.389,-1.088 0.585,-2.223 0.874,-3.342 0.287,-1.121 0.6,-2.242 0.761,-3.393 l 0.605,-3.448 0.196,-1.758 c 0.662,0.185 1.332,0.354 2.009,0.505 l 0.115,1.371 -0.023,3.637 c 0.028,1.224 -0.097,2.435 -0.199,3.653 -0.127,1.215 -0.198,2.446 -0.45,3.645 -0.22,1.205 -0.411,2.425 -0.663,3.631 l -0.914,3.588 c -0.351,1.185 -0.797,2.34 -1.194,3.517 -0.383,1.184 -0.94,2.296 -1.407,3.45 -0.456,1.162 -1.074,2.247 -1.621,3.371 -0.524,1.142 -1.251,2.169 -1.88,3.252 -0.646,1.078 -1.415,2.081 -2.12,3.124 -0.78,0.997 -1.527,2.018 -2.381,2.974 l -1.281,1.44 -1.392,1.381 c -0.511,0.49 -1.06,0.959 -1.648,1.422 -0.027,3.607 -0.077,7.21 -0.147,10.814 -0.102,4.166 -0.188,8.329 -0.354,12.494 -0.129,4.165 -0.355,8.327 -0.567,12.49 l -0.317,6.243 -0.304,4.369 0.091,0.035 c 0.706,0.341 1.423,0.652 2.113,1.021 0.669,0.408 1.367,0.754 2.002,1.214 0.623,0.473 1.283,0.884 1.859,1.411 0.58,0.523 1.195,0.993 1.712,1.576 0.536,0.56 1.085,1.1 1.55,1.719 0.487,0.597 0.965,1.195 1.368,1.848 0.441,0.627 0.838,1.277 1.166,1.965 0.369,0.666 0.684,1.352 0.952,2.058 0.307,0.689 0.552,1.396 0.757,2.116 0.24,0.706 0.42,1.428 0.56,2.156 0.181,0.719 0.283,1.448 0.349,2.18 0.092,0.729 0.167,1.455 0.167,2.185 0.013,0.727 0.072,1.446 0,2.171 -0.063,0.721 -0.068,1.437 -0.18,2.147 l -0.327,2.115 -0.207,-2.117 c -0.057,-0.699 -0.219,-1.39 -0.322,-2.078 -0.09,-0.69 -0.274,-1.365 -0.427,-2.037 -0.137,-0.677 -0.348,-1.333 -0.568,-1.982 -0.187,-0.657 -0.436,-1.291 -0.705,-1.913 -0.236,-0.633 -0.505,-1.25 -0.827,-1.838 -0.288,-0.604 -0.606,-1.189 -0.975,-1.741 -0.333,-0.574 -0.704,-1.118 -1.117,-1.63 -0.38,-0.532 -0.801,-1.03 -1.238,-1.513 -0.408,-0.505 -0.878,-0.95 -1.347,-1.391 -0.445,-0.465 -0.968,-0.846 -1.465,-1.248 -0.48,-0.422 -1.045,-0.734 -1.566,-1.097 -0.516,-0.369 -1.111,-0.623 -1.653,-0.941 -0.556,-0.298 -1.147,-0.534 -1.712,-0.81 -0.582,-0.242 -1.187,-0.433 -1.772,-0.657 l -1.821,-0.5 -1.922,-0.528 -0.053,-2.144 -0.154,-6.254 -0.04,-6.253 c -0.028,-4.167 -0.067,-8.335 -0.011,-12.502 0.02,-4.166 0.117,-8.33 0.2,-12.497 m -32.4,-11.321 c 4.061,0.282 8.105,0.772 12.148,1.144 l 7.139,0.992 4.93,0.685 -5.371,-0.227 -6.783,-0.285 c -4.053,-0.047 -8.098,-0.207 -12.138,-0.162 -4.045,0.095 -8.082,-0.014 -12.112,0.249 l -6.04,0.278 -6.021,0.467 c -4.018,0.236 -8,0.815 -11.987,1.26 -1.991,0.262 -3.965,0.62 -5.945,0.927 -1.982,0.293 -3.953,0.645 -5.909,1.058 -1.957,0.408 -3.932,0.739 -5.872,1.206 l -5.812,1.433 c -3.83,1.09 -7.664,2.169 -11.384,3.556 l -2.806,0.991 -2.755,1.111 c -1.84,0.73 -3.679,1.461 -5.453,2.331 -1.788,0.836 -3.598,1.63 -5.316,2.596 -1.736,0.929 -3.497,1.813 -5.152,2.873 -1.686,1.011 -3.375,2.012 -4.965,3.159 l -2.425,1.657 -2.323,1.787 c -3.123,2.353 -6.015,4.972 -8.791,7.691 -2.684,2.805 -5.29,5.695 -7.512,8.862 -1.186,1.53 -2.159,3.199 -3.226,4.806 -0.934,1.684 -1.943,3.33 -2.745,5.075 -1.675,3.45 -3.114,7.021 -4.106,10.687 -0.513,1.883 -0.919,3.791 -1.204,5.7 1.371,-0.537 2.742,-1.062 4.128,-1.574 3.159,-1.201 6.349,-2.275 9.535,-3.371 0.729,-0.237 1.457,-0.471 2.186,-0.709 0.225,-1.523 0.612,-3.366 1.443,-5.501 0.85,-2.206 2.092,-4.738 3.812,-7.401 1.734,-2.648 3.951,-5.41 6.613,-8.135 2.659,-2.729 5.769,-5.423 9.293,-7.892 3.521,-2.47 7.37,-4.856 11.547,-6.893 4.169,-2.04 8.563,-3.954 13.159,-5.477 2.269,-0.845 4.627,-1.466 6.959,-2.19 2.358,-0.626 4.726,-1.256 7.11,-1.793 4.774,-1.047 9.575,-1.943 14.332,-2.549 2.376,-0.32 4.73,-0.631 7.071,-0.817 2.335,-0.219 4.64,-0.455 6.914,-0.553 4.545,-0.325 8.942,-0.385 13.105,-0.476 4.167,0.051 8.103,0.009 11.729,0.209 1.813,0.074 3.551,0.142 5.204,0.208 0.485,0.034 0.947,0.066 1.419,0.098 1.128,0.079 2.229,0.154 3.266,0.227 2.941,0.192 5.502,0.385 7.604,0.618 4.208,0.416 6.612,0.653 6.612,0.653 0,0 -2.412,-0.125 -6.633,-0.347 -2.108,-0.138 -4.673,-0.212 -7.614,-0.267 -0.915,-0.022 -1.879,-0.044 -2.863,-0.067 -0.599,-0.014 -1.196,-0.027 -1.819,-0.044 -1.648,0.012 -3.381,0.022 -5.192,0.033 -3.615,-0.033 -7.529,0.191 -11.663,0.327 -4.13,0.283 -8.483,0.543 -12.96,1.071 -2.245,0.202 -4.509,0.538 -6.801,0.863 -2.299,0.288 -4.605,0.701 -6.926,1.123 -4.647,0.812 -9.31,1.907 -13.92,3.142 -2.3,0.631 -4.575,1.351 -6.836,2.063 -2.227,0.809 -4.483,1.512 -6.632,2.43 -4.365,1.671 -8.483,3.702 -12.353,5.818 -3.877,2.116 -7.382,4.53 -10.547,6.971 -3.168,2.447 -5.9,5.047 -8.18,7.614 -2.284,2.568 -4.124,5.097 -5.511,7.443 -1.368,2.356 -2.287,4.502 -2.877,6.266 -0.106,0.307 -0.18,0.585 -0.259,0.868 3.172,-0.939 6.341,-1.88 9.543,-2.708 3.005,-0.805 6.008,-1.621 9.035,-2.339 0.011,-0.026 0.02,-0.046 0.032,-0.072 0.187,-0.398 0.357,-0.85 0.667,-1.457 0.41,-0.672 0.892,-1.442 1.449,-2.29 0.542,-0.916 1.218,-1.596 1.936,-2.41 0.717,-0.818 1.492,-1.695 2.439,-2.447 0.937,-0.76 1.85,-1.721 2.97,-2.437 1.102,-0.749 2.243,-1.569 3.463,-2.35 1.26,-0.696 2.57,-1.422 3.926,-2.169 1.361,-0.728 2.837,-1.297 4.314,-1.979 1.468,-0.706 3.039,-1.232 4.634,-1.794 1.597,-0.55 3.203,-1.195 4.901,-1.611 1.678,-0.467 3.387,-0.941 5.115,-1.419 1.742,-0.406 3.517,-0.755 5.294,-1.137 0.89,-0.189 1.785,-0.376 2.68,-0.565 l 2.715,-0.423 c 1.813,-0.277 3.634,-0.553 5.456,-0.831 3.649,-0.423 7.305,-0.773 10.897,-1.089 3.603,-0.174 7.143,-0.395 10.566,-0.516 3.427,-0.026 6.737,-0.051 9.876,-0.076 3.137,0.022 6.099,0.176 8.832,0.249 2.735,0.081 5.237,0.155 7.452,0.347 0.311,0.021 0.602,0.041 0.9,0.061 1.835,0.13 3.467,0.242 4.834,0.338 3.177,0.225 4.993,0.35 4.993,0.35 0,0 -1.82,-0.016 -5.006,-0.043 -1.296,-0.011 -2.828,-0.025 -4.545,-0.038 -0.392,-0.004 -0.783,-0.008 -1.195,-0.012 -2.216,-0.055 -4.715,0.023 -7.439,0.108 -2.725,0.096 -5.676,0.123 -8.79,0.291 -3.11,0.215 -6.389,0.441 -9.78,0.674 -3.383,0.327 -6.866,0.761 -10.402,1.148 -3.518,0.527 -7.086,1.092 -10.631,1.724 -1.76,0.379 -3.518,0.757 -5.27,1.135 l -2.616,0.571 c -0.856,0.237 -1.709,0.472 -2.56,0.707 -1.697,0.476 -3.391,0.918 -5.041,1.407 -1.625,0.561 -3.229,1.115 -4.809,1.658 -1.596,0.494 -3.066,1.202 -4.539,1.808 -1.469,0.622 -2.916,1.202 -4.227,1.94 -1.32,0.715 -2.661,1.322 -3.851,2.058 -1.176,0.746 -2.313,1.469 -3.405,2.163 -1.029,0.754 -1.967,1.528 -2.885,2.229 -0.947,0.677 -1.606,1.517 -2.357,2.189 -0.665,0.585 -1.153,1.207 -1.608,1.797 0.384,-0.081 0.762,-0.184 1.147,-0.257 l 9.865,-2.02 9.913,-1.754 c 3.295,-0.627 6.629,-1.033 9.944,-1.534 3.323,-0.447 6.634,-0.968 9.974,-1.279 l 9.994,-1.067 c 3.331,-0.351 6.681,-0.507 10.02,-0.745 3.344,-0.197 6.672,-0.505 10.029,-0.554 l 10.04,-0.269 c 3.345,-0.13 6.679,-0.02 10.016,0.031 l 6.977,0.151 3.037,0.066 -2.908,0.217 -7.079,0.53 c -3.326,0.267 -6.67,0.387 -9.975,0.793 l -9.928,1.004 c -3.306,0.267 -6.602,0.794 -9.898,1.208 -3.294,0.465 -6.596,0.828 -9.879,1.329 l -9.839,1.571 c -3.285,0.477 -6.535,1.165 -9.797,1.779 -3.257,0.638 -6.535,1.143 -9.768,1.891 l -9.723,2.095 -9.657,2.359 c -3.228,0.741 -6.41,1.67 -9.617,2.496 -3.209,0.815 -6.379,1.768 -9.554,2.698 -3.186,0.899 -6.333,1.915 -9.483,2.923 -3.164,0.966 -6.264,2.112 -9.404,3.135 -3.111,1.097 -6.236,2.175 -9.302,3.368 -3.067,1.151 -6.169,2.403 -9.065,3.671 l -4.947,2.163 0.015,-5.346 c 0.015,-4.45 0.708,-8.762 1.807,-12.929 1.076,-4.178 2.696,-8.166 4.602,-11.979 0.912,-1.934 2.031,-3.746 3.083,-5.594 1.181,-1.766 2.279,-3.593 3.587,-5.263 2.469,-3.455 5.33,-6.587 8.273,-9.611 3.04,-2.921 6.167,-5.765 9.584,-8.214 l 2.541,-1.86 2.633,-1.718 c 1.731,-1.183 3.553,-2.213 5.368,-3.247 1.791,-1.082 3.674,-1.98 5.534,-2.921 1.843,-0.979 3.767,-1.776 5.67,-2.612 1.891,-0.872 3.838,-1.595 5.782,-2.316 l 2.914,-1.092 2.965,-0.926 c 3.934,-1.299 7.952,-2.271 11.957,-3.247 l 6.052,-1.253 c 2.017,-0.405 4.057,-0.672 6.084,-1.014 l 3.043,-0.479 3.062,-0.329 c 2.04,-0.207 4.075,-0.467 6.118,-0.629 4.091,-0.243 8.167,-0.614 12.257,-0.643 2.043,-0.047 4.084,-0.12 6.125,-0.116 l 6.121,0.125 c 4.078,0.017 8.145,0.367 12.208,0.578 m -201.34,37.442 c 3.041,0.904 6.285,1.871 9.529,2.835 6.491,1.923 12.953,3.935 17.8,5.44 2.328,0.74 4.269,1.356 5.671,1.803 1.512,0.478 2.394,0.758 2.394,0.758 l -0.528,1.7 c 0,0 -0.897,-0.274 -2.431,-0.741 -1.405,-0.427 -3.341,-1.016 -5.664,-1.722 -4.848,-1.508 -11.311,-3.516 -17.748,-5.611 -3.22,-1.044 -6.439,-2.088 -9.457,-3.067 -3.023,-0.963 -5.819,-1.936 -8.225,-2.746 -2.392,-0.863 -4.388,-1.57 -5.765,-2.127 -1.384,-0.534 -2.167,-0.867 -2.167,-0.867 l 0.005,-0.012 0.003,-0.012 c 0,0 0.835,0.164 2.28,0.502 1.452,0.315 3.499,0.854 5.96,1.488 2.442,0.688 5.31,1.451 8.343,2.379 m 70.734,-42.29 c 1.131,1.662 1.806,2.652 1.806,2.652 l -1.465,1.013 c 0,0 -0.67,-0.959 -1.793,-2.563 -0.775,-1.111 -1.761,-2.521 -2.918,-4.174 -2.799,-4.06 -6.537,-9.471 -10.194,-14.937 -1.834,-2.732 -3.666,-5.459 -5.384,-8.02 -0.86,-1.262 -1.703,-2.532 -2.427,-3.744 -0.74,-1.204 -1.441,-2.341 -2.09,-3.391 -1.244,-2.131 -2.304,-3.895 -2.987,-5.166 -0.705,-1.256 -1.083,-1.993 -1.083,-1.993 l 0.01,-0.007 0.01,-0.006 h 0.001 c 10e-4,0 0.524,0.64 1.395,1.789 0.892,1.134 2.086,2.807 3.545,4.8 2.8,4.07 6.597,9.395 10.406,14.773 3.814,5.359 7.545,10.774 10.348,14.832 1.112,1.633 2.065,3.032 2.82,4.142 m -12.804,11.245 c 1.482,1.329 2.37,2.123 2.37,2.123 l -1.181,1.333 c 0,0 -0.927,-0.812 -2.48,-2.169 -1.039,-0.91 -2.357,-2.06 -3.889,-3.402 -3.801,-3.363 -8.868,-7.851 -13.878,-12.404 -2.506,-2.276 -5.012,-4.55 -7.361,-6.682 -2.362,-2.12 -4.512,-4.155 -6.374,-5.879 -1.824,-1.771 -3.355,-3.235 -4.38,-4.31 -1.045,-1.054 -1.62,-1.682 -1.62,-1.682 l 0.008,-0.007 0.008,-0.008 c 0,0 0.693,0.489 1.872,1.392 1.195,0.884 2.839,2.219 4.824,3.805 1.946,1.63 4.246,3.504 6.63,5.595 2.401,2.073 4.961,4.287 7.524,6.498 5.126,4.421 10.195,8.908 13.995,12.274 1.562,1.398 2.889,2.588 3.932,3.523 m 31.822,-17.503 -1.524,0.921 c 0,0 -1.011,-1.655 -2.626,-4.291 -0.442,-0.721 -0.919,-1.502 -1.444,-2.359 -2.419,-4.004 -5.636,-9.346 -8.785,-14.732 -1.577,-2.69 -3.151,-5.381 -4.629,-7.906 -0.731,-1.253 -1.477,-2.486 -2.092,-3.675 -0.634,-1.182 -1.232,-2.296 -1.787,-3.328 -0.557,-1.029 -1.017,-2.001 -1.45,-2.848 -0.433,-0.848 -0.798,-1.594 -1.084,-2.216 -0.59,-1.235 -0.899,-1.956 -0.899,-1.956 l 0.01,-0.007 0.01,-0.007 c 0,0 0.469,0.63 1.243,1.76 0.398,0.559 0.861,1.246 1.377,2.047 0.516,0.799 1.127,1.683 1.74,2.679 2.463,3.973 5.744,9.275 9.027,14.574 3.292,5.297 6.517,10.637 8.93,14.643 0.523,0.879 0.997,1.68 1.436,2.417 1.566,2.633 2.547,4.284 2.547,4.284 m 15.16,-12.18 c -0.182,-0.352 -0.366,-0.701 -0.561,-1.075 -2.035,-3.948 -4.738,-9.219 -7.372,-14.526 -1.318,-2.651 -2.635,-5.303 -3.87,-7.79 -1.269,-2.469 -2.311,-4.868 -3.237,-6.879 -0.465,-1.007 -0.839,-1.96 -1.196,-2.79 -0.358,-0.83 -0.656,-1.559 -0.887,-2.169 -0.48,-1.208 -0.727,-1.911 -0.727,-1.911 l 0.02,-0.011 c 0,0 0.412,0.623 1.083,1.738 0.345,0.552 0.745,1.229 1.191,2.017 0.443,0.788 0.973,1.66 1.496,2.639 2.087,3.922 4.867,9.148 7.65,14.374 2.782,5.23 5.494,10.498 7.521,14.449 0.229,0.45 0.445,0.877 0.653,1.29 1.635,3.235 2.688,5.318 2.688,5.318 l -1.584,0.814 c 0,0 -1.13,-2.162 -2.868,-5.488 M 32.496,430.527 c 7.652,-3.206 15.337,-6.339 21.102,-8.681 3.002,-1.207 5.465,-2.196 7.156,-2.874 1.561,-0.628 2.468,-0.992 2.468,-0.992 l 0.672,1.649 c 0,0 -1.08,0.444 -2.915,1.203 -1.66,0.685 -3.939,1.626 -6.672,2.753 -5.764,2.35 -13.449,5.476 -21.165,8.528 -7.723,3.039 -15.415,6.149 -21.25,8.316 -1.453,0.557 -2.806,1.014 -3.995,1.446 -1.189,0.432 -2.231,0.794 -3.096,1.077 -1.728,0.567 -2.716,0.893 -2.717,0.893 L 2.08,443.834 2.076,443.822 c 0,0 0.933,-0.456 2.567,-1.259 0.815,-0.401 1.815,-0.87 2.967,-1.391 1.153,-0.521 2.441,-1.141 3.869,-1.755 5.691,-2.525 13.367,-5.673 21.017,-8.89 M 159.41,291.015 c -0.097,-0.225 -0.188,-0.437 -0.288,-0.67 -1.65,-3.893 -3.84,-9.09 -5.958,-14.316 -1.06,-2.612 -2.12,-5.226 -3.113,-7.675 -1.023,-2.437 -1.857,-4.777 -2.596,-6.752 -0.372,-0.991 -0.659,-1.92 -0.942,-2.733 -0.282,-0.811 -0.513,-1.525 -0.689,-2.122 -0.37,-1.182 -0.554,-1.869 -0.554,-1.869 l 0.011,-0.002 0.012,-0.004 c 0,0 0.352,0.616 0.919,1.715 0.295,0.547 0.632,1.217 1.004,1.993 0.369,0.776 0.821,1.64 1.252,2.606 1.766,3.848 3.989,9.012 6.274,14.175 2.271,5.161 4.469,10.354 6.113,14.252 0.135,0.327 0.262,0.632 0.391,0.944 1.394,3.368 2.305,5.568 2.305,5.568 l -1.64,0.691 c 0,0 -0.993,-2.302 -2.501,-5.801 m 22.283,-4.112 c -0.123,-0.369 -0.25,-0.745 -0.384,-1.143 -1.266,-3.838 -2.941,-8.957 -4.545,-14.103 -1.583,-5.145 -3.273,-10.271 -4.316,-14.18 -0.504,-1.96 -0.934,-3.591 -1.175,-4.752 -0.26,-1.153 -0.38,-1.823 -0.38,-1.823 l 0.011,-0.004 0.011,-0.002 c 0,0 0.295,0.612 0.758,1.702 0.485,1.082 1.089,2.654 1.825,4.541 1.417,3.789 3.112,8.894 4.892,13.984 1.762,5.093 3.448,10.212 4.706,14.05 0.171,0.529 0.328,1.025 0.481,1.504 0.962,2.994 1.574,4.909 1.574,4.909 l -1.691,0.557 c 0,0 -0.693,-2.058 -1.767,-5.24 M 54.252,416.82 c -0.902,0.119 -1.875,0.249 -2.876,0.381 -4.579,0.607 -10.071,1.323 -15.587,1.984 -3.36,0.405 -6.722,0.81 -9.871,1.19 -3.148,0.396 -6.092,0.688 -8.619,0.964 -2.531,0.22 -4.639,0.418 -6.124,0.489 -1.48,0.098 -2.33,0.123 -2.33,0.123 l -0.001,-0.005 -0.003,-0.018 c 0.002,0 0.826,-0.202 2.281,-0.503 1.449,-0.323 3.534,-0.693 6.033,-1.154 2.507,-0.401 5.427,-0.912 8.571,-1.345 3.14,-0.457 6.489,-0.945 9.839,-1.43 6.696,-0.983 13.407,-1.872 18.439,-2.542 1.525,-0.194 2.871,-0.365 4.042,-0.512 0.886,-0.112 1.658,-0.21 2.293,-0.292 1.3,-0.163 2.059,-0.26 2.059,-0.26 l 0.235,1.764 c 0,0 -0.795,0.112 -2.165,0.303 -1.471,0.203 -3.612,0.502 -6.216,0.863 M 16.57,396.388 c 2.535,0.09 5.501,0.15 8.669,0.33 3.168,0.156 6.549,0.322 9.93,0.489 6.761,0.326 13.517,0.743 18.583,1.055 2.838,0.193 5.115,0.346 6.594,0.447 1.164,0.078 1.849,0.124 1.849,0.124 l -0.111,1.777 c 0,0 -0.683,-0.038 -1.842,-0.103 -1.484,-0.082 -3.763,-0.208 -6.605,-0.367 -5.066,-0.312 -11.822,-0.726 -18.573,-1.232 -3.375,-0.249 -6.751,-0.5 -9.915,-0.732 -3.165,-0.217 -6.112,-0.497 -8.643,-0.712 -2.527,-0.273 -4.633,-0.484 -6.103,-0.698 -1.473,-0.19 -2.312,-0.328 -2.312,-0.328 l 0.001,-0.012 10e-4,-0.013 c 0.004,0 0.853,-0.038 2.333,-0.054 1.486,-0.04 3.601,0 6.144,0.029 m 11.455,-19.157 c 3.131,0.527 6.467,1.09 9.804,1.655 6.676,1.119 13.337,2.33 18.331,3.235 2.545,0.479 4.649,0.872 6.107,1.146 1.401,0.263 2.208,0.416 2.208,0.416 l -0.317,1.751 c 0,0 -0.811,-0.144 -2.22,-0.39 -1.46,-0.255 -3.568,-0.625 -6.114,-1.072 -4.996,-0.905 -11.656,-2.112 -18.299,-3.41 -3.323,-0.645 -6.647,-1.289 -9.76,-1.894 -3.118,-0.587 -6.011,-1.213 -8.5,-1.724 -2.476,-0.567 -4.544,-1.024 -5.979,-1.412 -1.44,-0.361 -2.255,-0.598 -2.255,-0.598 l 0.002,-0.011 v -0.012 c 0.002,0 0.851,0.061 2.325,0.221 1.479,0.136 3.578,0.424 6.097,0.751 2.507,0.386 5.446,0.797 8.57,1.348 m 47.876,-40.528 c 1.859,1.188 3.426,2.19 4.627,2.96 1.565,1.002 2.5,1.599 2.5,1.599 l -0.948,1.506 c 0,0 -0.968,-0.603 -2.581,-1.606 -1.207,-0.752 -2.762,-1.721 -4.603,-2.867 -4.294,-2.709 -10.018,-6.319 -15.692,-10.008 -2.842,-1.84 -5.682,-3.681 -8.345,-5.408 -2.67,-1.712 -5.12,-3.372 -7.236,-4.778 -2.084,-1.453 -3.831,-2.65 -5.017,-3.544 -1.199,-0.874 -1.868,-1.399 -1.869,-1.4 l 0.007,-0.011 0.006,-0.009 c 0,0 0.765,0.374 2.071,1.075 1.323,0.681 3.159,1.731 5.375,2.979 2.18,1.292 4.753,2.772 7.444,4.452 2.704,1.661 5.589,3.432 8.471,5.204 5.774,3.534 11.497,7.149 15.79,9.856 m -26.317,7.417 c 6.307,2.457 12.581,4.998 17.286,6.906 2.238,0.921 4.104,1.691 5.46,2.249 1.49,0.614 2.362,0.974 2.362,0.974 l -0.668,1.649 c 0,0 -0.934,-0.373 -2.512,-1 -1.352,-0.539 -3.172,-1.262 -5.349,-2.129 -4.705,-1.905 -10.979,-4.446 -17.217,-7.07 -3.123,-1.309 -6.243,-2.617 -9.169,-3.845 -2.933,-1.21 -5.637,-2.414 -7.968,-3.421 -2.312,-1.06 -4.242,-1.928 -5.567,-2.6 -1.335,-0.646 -2.086,-1.045 -2.087,-1.045 l 0.004,-0.011 0.005,-0.011 c 0,0 0.819,0.231 2.229,0.689 1.421,0.436 3.416,1.144 5.816,1.98 2.376,0.888 5.169,1.887 8.116,3.064 2.956,1.157 6.109,2.388 9.259,3.621 m 154.019,-59.266 c -0.158,-0.654 -0.326,-1.357 -0.512,-2.126 -0.883,-3.781 -2.048,-8.824 -3.138,-13.883 -1.071,-5.066 -2.239,-10.109 -2.92,-13.936 -0.316,-1.917 -0.59,-3.514 -0.719,-4.647 -0.151,-1.126 -0.207,-1.776 -0.207,-1.778 l 0.012,-0.002 0.011,-0.004 v 0.002 c 0,0.002 0.238,0.61 0.594,1.686 0.378,1.077 0.832,2.632 1.388,4.494 1.059,3.74 2.238,8.777 3.509,13.796 1.252,5.023 2.426,10.065 3.302,13.845 0.202,0.9 0.386,1.723 0.551,2.462 0.531,2.379 0.863,3.851 0.863,3.851 l -1.733,0.405 c 0,0 -0.387,-1.611 -1.001,-4.165"
           style="fill:#231f20;fill-opacity:1;fill-rule:nonzero;stroke:none"
           id="path8212"
           inkscape:connector-curvature="0" /></g></g></g></svg>